<svg id="Layer_1" data-name="Layer 1" xmlns="http://www.w3.org/2000/svg" viewBox="0 0 200 192.11"><defs><style>.cls-1{fill:#f7b749;}.cls-2{fill:#ed362f;}.cls-3{fill:#43b85c;}.cls-4{fill:#2cb4e2;}</style></defs><path d="M159.3,308.52q-4.76,0-7-2.28c-1.51-1.51-2.27-3.86-2.27-7v-9.59q0-4.8,2.28-7.05t7-2.21h5q4.77,0,7,2.26t2.26,7v9.55c0,3.17-.75,5.52-2.26,7s-3.86,2.28-7,2.28Zm0-3.49h5a9.37,9.37,0,0,0,3.49-.53,3.2,3.2,0,0,0,1.79-1.8,9.1,9.1,0,0,0,.53-3.49v-9.55a9.09,9.09,0,0,0-.53-3.47,3.31,3.31,0,0,0-1.79-1.81,9.37,9.37,0,0,0-3.49-.53h-5a9.13,9.13,0,0,0-3.46.49,3.25,3.25,0,0,0-1.81,1.79,9.11,9.11,0,0,0-.54,3.49v9.59a9.3,9.3,0,0,0,.53,3.49,3.19,3.19,0,0,0,1.8,1.8A9.28,9.28,0,0,0,159.3,305Z" transform="translate(-150 -153.94)"/><path d="M182.57,316.83a1.55,1.55,0,0,1-1.75-1.75V289.2a1.75,1.75,0,0,1,3.49,0v.52a7.26,7.26,0,0,1,2.77-1.69,11.33,11.33,0,0,1,3.71-.57h1.58q4.15,0,6.15,2t2,6.15v4.78c0,2.75-.66,4.8-2,6.13s-3.38,2-6.15,2h-8.06v6.56A1.55,1.55,0,0,1,182.57,316.83Zm1.74-11.8h8.06c1.81,0,3-.33,3.68-1s1-1.87,1-3.67V295.6c0-1.81-.32-3-1-3.69s-1.87-1-3.68-1h-1.58a14.58,14.58,0,0,0-4.49.62c-1.26.42-1.92,1.07-2,2Z" transform="translate(-150 -153.94)"/><path d="M210.23,299.42v1c0,1.78.32,3,1,3.64s1.88,1,3.68,1h3.41a9,9,0,0,0,3.13-.4,2.15,2.15,0,0,0,1.35-1.39,3,3,0,0,1,.64-1.2,1.64,1.64,0,0,1,1.23-.42,1.82,1.82,0,0,1,1.33.46,1.39,1.39,0,0,1,.29,1.33,5.4,5.4,0,0,1-2.45,3.84,10.21,10.21,0,0,1-5.52,1.27h-3.41q-4.12,0-6.14-2c-1.33-1.32-2-3.36-2-6.1V295.6q0-4.22,2-6.2t6.14-1.94h3.41q4.16,0,6.14,2c1.33,1.32,2,3.38,2,6.16v2.08a1.54,1.54,0,0,1-1.75,1.74Zm4.65-8.47c-1.8,0-3,.28-3.68.93s-1,1.89-1,3.72v.33h12.71v-.33c0-1.81-.32-3-1-3.69s-1.87-1-3.68-1Z" transform="translate(-150 -153.94)"/><path d="M235.4,308.52a1.54,1.54,0,0,1-1.74-1.75V289.2a1.75,1.75,0,0,1,3.49,0v.69q2.19-2.43,6.47-2.43h1.17q4.16,0,6.15,2t2,6.15v11.17a1.75,1.75,0,1,1-3.49,0V295.6q0-2.72-1-3.69c-.65-.64-1.88-1-3.66-1h-1.17a14.83,14.83,0,0,0-4.34.57q-1.84.57-2.13,1.8v13.45A1.55,1.55,0,0,1,235.4,308.52Z" transform="translate(-150 -153.94)"/><path d="M262.48,308.52a1.52,1.52,0,0,1-1.74-1.75V282.14a1.81,1.81,0,0,1,.42-1.33,1.88,1.88,0,0,1,1.32-.41,1.86,1.86,0,0,1,1.33.41,1.81,1.81,0,0,1,.42,1.33v24.63a1.8,1.8,0,0,1-.42,1.32A1.77,1.77,0,0,1,262.48,308.52Z" transform="translate(-150 -153.94)"/><path d="M274.2,308.52a1.54,1.54,0,0,1-1.75-1.75V289.2a1.75,1.75,0,0,1,3.49,0v.69q2.21-2.43,6.48-2.43h1.16q4.16,0,6.15,2t2,6.15v11.17a1.74,1.74,0,1,1-3.48,0V295.6q0-2.72-1-3.69c-.66-.64-1.88-1-3.67-1h-1.16a14.78,14.78,0,0,0-4.34.57c-1.23.38-1.95,1-2.14,1.8v13.45A1.54,1.54,0,0,1,274.2,308.52Z" transform="translate(-150 -153.94)"/><path d="M302.07,308.52a1.54,1.54,0,0,1-1.75-1.75V291h-1.53a1.75,1.75,0,1,1,0-3.49h1.53v-.17q0-4.08,2-6.05c1.31-1.31,3.33-2,6-2q1.5,0,1.5,1.74t-1.5,1.74c-1.75,0-2.94.32-3.57.94s-1,1.82-1,3.59v.17h4.28a1.75,1.75,0,1,1,0,3.49h-4.28v15.82A1.54,1.54,0,0,1,302.07,308.52Z" transform="translate(-150 -153.94)"/><path d="M316.9,308.52a1.54,1.54,0,0,1-1.75-1.75V289.2a1.75,1.75,0,0,1,3.49,0v1.62a7.85,7.85,0,0,1,3.13-2.51,10.45,10.45,0,0,1,4.35-.85,1.75,1.75,0,0,1,0,3.49,9.47,9.47,0,0,0-5.49,1.33,4.35,4.35,0,0,0-2,3.51v11A1.54,1.54,0,0,1,316.9,308.52Z" transform="translate(-150 -153.94)"/><path d="M337.71,308.52a7.39,7.39,0,0,1-5.21-12.09c1.13-1.13,2.86-1.7,5.21-1.7h8.78a3.89,3.89,0,0,0-1.14-3,5.73,5.73,0,0,0-3.49-.8h-2.41a12.37,12.37,0,0,0-3.09.28,2.25,2.25,0,0,0-1.44,1,3.17,3.17,0,0,1-.77,1.2,1.79,1.79,0,0,1-1.18.33,1.85,1.85,0,0,1-1.37-.49,1.24,1.24,0,0,1-.29-1.29,5.24,5.24,0,0,1,2.61-3.44,11.54,11.54,0,0,1,5.53-1.09h2.41q4.15,0,6.15,2t2,6.15v11.17a1.75,1.75,0,1,1-3.49,0v-.93a7.92,7.92,0,0,1-6.48,2.68Zm0-3.49H340a14,14,0,0,0,2.89-.28,5.55,5.55,0,0,0,2.31-1,3.57,3.57,0,0,0,1.28-2.14v-3.36h-8.8a3.46,3.46,0,1,0,0,6.81Z" transform="translate(-150 -153.94)"/><path d="M176,346a.62.62,0,0,1-.7-.69V332.22a.62.62,0,0,1,.7-.7h8a.67.67,0,0,1,.52.19.69.69,0,0,1,.18.51.62.62,0,0,1-.7.7h-7.34V338h4.85a.7.7,0,1,1,0,1.4h-4.85v6A.61.61,0,0,1,176,346Z" transform="translate(-150 -153.94)"/><path d="M193.21,346a4.09,4.09,0,0,1-4.73-4.72v-5.08a4.07,4.07,0,0,1,4.72-4.72h2.67a4.09,4.09,0,0,1,4.73,4.73v5.07a4.09,4.09,0,0,1-4.73,4.72Zm0-1.39h2.66a5,5,0,0,0,2-.32,1.93,1.93,0,0,0,1-1,4.91,4.91,0,0,0,.32-2v-5.07a4.91,4.91,0,0,0-.32-2,1.91,1.91,0,0,0-1-1,5,5,0,0,0-2-.31H193.2a4.88,4.88,0,0,0-2,.3,1.9,1.9,0,0,0-1,1,5.11,5.11,0,0,0-.32,2v5.08a5.09,5.09,0,0,0,.32,2,2,2,0,0,0,1.05,1A5,5,0,0,0,193.21,344.65Z" transform="translate(-150 -153.94)"/><path d="M211.35,346a4.09,4.09,0,0,1-4.73-4.72v-9.1a.64.64,0,0,1,.7-.7.65.65,0,0,1,.7.7v9.1a5.11,5.11,0,0,0,.31,2,2,2,0,0,0,1,1,5.06,5.06,0,0,0,2,.32H214a5.11,5.11,0,0,0,2-.32,2,2,0,0,0,1-1,5.11,5.11,0,0,0,.31-2v-9.1a.65.65,0,0,1,.7-.7.64.64,0,0,1,.7.7v9.1A4.09,4.09,0,0,1,214,346Z" transform="translate(-150 -153.94)"/><path d="M225.84,346a.61.61,0,0,1-.7-.69V332.22a.62.62,0,0,1,.7-.7,1,1,0,0,1,.71.41l9.23,11.87h-.34V332.22a.7.7,0,1,1,1.4,0v13.13a.61.61,0,0,1-.7.69.91.91,0,0,1-.71-.41l-9.23-11.86h.34v11.58A.62.62,0,0,1,225.84,346Z" transform="translate(-150 -153.94)"/><path d="M244.05,346a.61.61,0,0,1-.7-.69V332.22a.62.62,0,0,1,.7-.7h5.34a4.66,4.66,0,0,1,5.39,5.4v3.73a4.66,4.66,0,0,1-5.39,5.39Zm.7-1.39h4.64a6.12,6.12,0,0,0,2.36-.38A2.41,2.41,0,0,0,253,343a6.06,6.06,0,0,0,.38-2.35v-3.73a6.15,6.15,0,0,0-.38-2.36,2.42,2.42,0,0,0-1.26-1.26,6.12,6.12,0,0,0-2.36-.38h-4.64Z" transform="translate(-150 -153.94)"/><path d="M259.71,346a.64.64,0,0,1-.39-.92l5.42-13a.81.81,0,0,1,.79-.55h.05a.78.78,0,0,1,.75.55l5.46,13a.63.63,0,0,1-.38.92.62.62,0,0,1-.91-.38l-1.37-3.29H262l-1.36,3.29A.61.61,0,0,1,259.71,346Zm2.84-5.06h6l-3-7.19Z" transform="translate(-150 -153.94)"/><path d="M279.44,346.06a.64.64,0,0,1-.7-.7V332.92h-4.57a.71.71,0,0,1-.52-.18.73.73,0,0,1-.18-.52.69.69,0,0,1,.18-.51.68.68,0,0,1,.52-.19h10.54a.68.68,0,0,1,.52.19.69.69,0,0,1,.18.51.73.73,0,0,1-.18.52.71.71,0,0,1-.52.18h-4.57v12.44a.69.69,0,0,1-.19.51A.69.69,0,0,1,279.44,346.06Z" transform="translate(-150 -153.94)"/><path d="M291,346a.73.73,0,0,1-.52-.18.69.69,0,0,1-.18-.51V332.22a.7.7,0,0,1,.18-.52.73.73,0,0,1,.52-.18.63.63,0,0,1,.7.7v13.13a.69.69,0,0,1-.18.51A.7.7,0,0,1,291,346Z" transform="translate(-150 -153.94)"/><path d="M302.52,346a4.09,4.09,0,0,1-4.73-4.72v-5.08a4.91,4.91,0,0,1,1.15-3.6,4.83,4.83,0,0,1,3.57-1.12h2.67a4.09,4.09,0,0,1,4.73,4.73v5.07a4.08,4.08,0,0,1-4.73,4.72Zm0-1.39h2.66a5.08,5.08,0,0,0,2-.32,2,2,0,0,0,1-1,5.09,5.09,0,0,0,.32-2v-5.07a5.09,5.09,0,0,0-.32-2,2,2,0,0,0-1-1,5.1,5.1,0,0,0-2-.31h-2.67a4.86,4.86,0,0,0-2,.3,1.84,1.84,0,0,0-1,1,4.93,4.93,0,0,0-.32,2v5.08a4.91,4.91,0,0,0,.32,2,1.9,1.9,0,0,0,1,1A5.09,5.09,0,0,0,302.52,344.65Z" transform="translate(-150 -153.94)"/><path d="M316.74,346a.61.61,0,0,1-.69-.69V332.22a.62.62,0,0,1,.69-.7.94.94,0,0,1,.71.41l9.23,11.87h-.33V332.22a.7.7,0,1,1,1.39,0v13.13a.61.61,0,0,1-.69.69.91.91,0,0,1-.71-.41l-9.23-11.86h.33v11.58A.61.61,0,0,1,316.74,346Z" transform="translate(-150 -153.94)"/><polygon class="cls-1" points="48.3 17.23 48.3 25.85 107.57 25.85 48.3 85.13 54.39 91.22 128.38 17.23 48.3 17.23"/><polygon class="cls-2" points="136.99 8.62 145.61 0 125.85 0 48.3 0 48.3 8.62 136.99 8.62"/><polygon class="cls-3" points="143.09 14.71 143.09 103.41 151.7 103.41 151.7 25.85 151.7 6.09 143.09 14.71"/><polygon class="cls-4" points="134.47 103.41 134.47 23.33 60.48 97.31 66.58 103.41 125.85 44.13 125.85 103.41 134.47 103.41"/></svg>